HIERARCHY
ROOT Hips
{
	OFFSET 0.00000 0.00000 0.00000
	CHANNELS 6 Xposition Yposition Zposition Yrotation Zrotation Xrotation 
	JOINT Lumbar
	{
		OFFSET 0 0 0
		CHANNELS 3 Zrotation Xrotation Yrotation
		JOINT Neck
		{
			OFFSET 0.00 0.2701 0.00
			CHANNELS 3 Zrotation Xrotation Yrotation
			End Site
			{
				OFFSET 0.00 0.1379 0.00
			}
		}
		JOINT RightShoulder
		{
			OFFSET 0.0119 0.2289 0.1181
			CHANNELS 3 Zrotation Xrotation Yrotation
			JOINT RightElbow
			{
				OFFSET 0.00 -0.1475 0.00
				CHANNELS 2 Zrotation Yrotation
				JOINT RightWrist
				{
					OFFSET 0.00 -0.1605 0.00
					CHANNELS 2 Zrotation Xrotation
					End Site
					{
						OFFSET 0.0040 -0.1068 0.0006
					}
				}
			}
		}
		JOINT LeftShoulder
		{
			OFFSET 0.0119 0.2289 -0.1181
			CHANNELS 3 Zrotation Xrotation Yrotation
			JOINT LeftElbow
			{
				OFFSET 0.00 -0.1475 0.00
				CHANNELS 2 Zrotation Yrotation
				JOINT LeftWrist
				{
					OFFSET 0.00 -0.1605 0.00
					CHANNELS 2 Zrotation Xrotation
					End Site
					{
						OFFSET 0.0040 -0.1068 -0.0006
					}
				}
			}
		}
	}
	JOINT RightHip
	{
		OFFSET 0.0316 -0.0424 0.0458
		CHANNELS 3 Zrotation Xrotation Yrotation
		JOINT RightKnee
		{
			OFFSET 0.00 -0.2438 0.00
			CHANNELS 1 Zrotation
			JOINT RightAnkle
			{
				OFFSET 0.00 -0.2449 0.00
				CHANNELS 3 Zrotation Xrotation Yrotation
				End Site
				{
					OFFSET 0.1237 -0.0542 0.0051
				}
			}
		}
	}
	JOINT LeftHip
	{
		OFFSET 0.0316 -0.0424 -0.0458
		CHANNELS 3 Zrotation Xrotation Yrotation
		JOINT LeftKnee
		{
			OFFSET 0.00 -0.2438 0.00
			CHANNELS 1 Zrotation
			JOINT LeftAnkle
			{
				OFFSET 0.00 -0.2449 0.00
				CHANNELS 3 Zrotation Xrotation Yrotation
				End Site
				{
					OFFSET 0.1237 -0.0542 -0.0051
				}
			}
		}
	}
}
MOTION
Frames: 33
Frame Time: 0.02
0.04816 -0.02234 -0.14115 -192.07787 -30.78508 -7.17066 39.50943 0.80156 5.56615 -37.64857 2.0508 -0.83062 -29.61169 -11.6592 -11.14011 28.78557 82.24056 -0.36159 -8.03306 -21.90544 122.75535 -26.78501 5.98523 -49.61544 -13.4619 -0.15753 36.25528 13.92287 -40.6227 -25.45192 15.72319 16.49557 6.55535 51.71308 0.63239 16.26086 -35.88293 -9.27484 5.47238 3.72091
0.04857 -0.02217 -0.14088 -192.27174 -30.82449 -7.29328 39.60972 0.85686 5.42506 -37.98622 2.20161 -0.83062 -29.98314 -11.12453 -11.84044 29.11006 82.11463 -0.87196 -8.89808 -20.76988 122.71895 -28.03281 6.1266 -50.8629 -14.17316 -0.29179 36.42389 13.92287 -40.6227 -25.61549 15.34614 16.66854 6.73492 51.76926 0.6419 16.06361 -35.70285 -9.32844 5.49186 3.73519
0.04892 -0.02195 -0.14078 -192.51885 -30.91582 -7.45823 39.75995 0.88414 5.33373 -38.30702 2.53287 -0.83062 -29.99811 -10.60726 -12.70844 29.10635 82.06185 -1.329 -9.52935 -19.61867 122.80401 -29.42325 6.27748 -53.56948 -14.68233 -0.70914 36.68115 13.92287 -40.62269 -25.87563 14.8335 16.86329 7.00707 51.86566 0.62376 15.64321 -35.45464 -9.41111 5.52664 3.76012
0.04931 -0.02176 -0.14059 -192.73781 -30.98062 -7.60015 39.88113 0.92684 5.22459 -38.62885 2.78045 -0.83063 -30.17111 -10.10667 -13.4489 29.25682 81.97518 -1.7941 -10.24546 -18.50201 122.82614 -30.70896 6.41823 -55.50894 -15.26945 -0.9852 36.89114 13.92287 -40.62269 -26.0826 14.39573 17.04652 7.23057 51.94058 0.62172 15.34811 -35.24207 -9.47706 5.55301 3.77908
0.04967 -0.02154 -0.14046 -192.97507 -31.05973 -7.75954 40.0305 0.95707 5.09555 -38.97993 3.04366 -0.83063 -30.3627 -9.50288 -14.41087 29.39486 81.88865 -2.33842 -11.07106 -17.25341 122.88311 -32.1378 6.58913 -57.87234 -15.93118 -1.30464 37.13472 13.92287 -40.62268 -26.33325 13.89778 17.24123 7.48106 52.03124 0.60932 14.9611 -35.01107 -9.55674 5.58507 3.80241
0.05006 -0.02136 -0.14024 -193.18566 -31.12069 -7.89214 40.13267 1.00728 5.01905 -39.26533 3.31438 -0.83063 -30.42936 -9.11828 -14.9511 29.47823 81.82003 -2.70257 -11.6082 -16.28242 122.89573 -33.31174 6.69812 -59.70788 -16.38488 -1.6044 37.32795 13.92287 -40.62268 -26.51414 13.49495 17.41216 7.69854 52.09783 0.60968 14.70772 -34.80171 -9.61519 5.6091 3.81935
0.05058 -0.02128 -0.13973 -193.31682 -31.11818 -7.93899 40.0902 1.11664 5.08293 -39.37672 3.55552 -0.83063 -30.24825 -9.33057 -14.26535 29.48133 81.78506 -2.5613 -11.37501 -16.07772 122.75387 -33.75051 6.62394 -59.69474 -16.29477 -1.78538 37.35878 13.92286 -40.62266 -26.47871 13.38369 17.5551 7.78977 52.08809 0.65823 14.89523 -34.66963 -9.6074 5.60699 3.81571
0.05113 -0.02124 -0.13913 -193.41795 -31.09555 -7.95748 39.99883 1.24771 5.19668 -39.4218 3.79791 -0.83063 -29.95148 -9.76338 -13.15255 29.44119 81.76566 -2.24272 -10.86229 -16.15572 122.56345 -33.93009 6.48806 -59.10844 -16.00322 -1.93724 37.33564 13.92286 -40.62263 -26.36911 13.37411 17.66712 7.84615 52.05251 0.71889 15.22079 -34.56134 -9.57748 5.59637 3.80541
0.05166 -0.02117 -0.13856 -193.52779 -31.08212 -7.98961 39.93075 1.37087 5.28271 -39.49509 4.04233 -0.83063 -29.7013 -10.09791 -12.24726 29.42567 81.73805 -2.01713 -10.49466 -16.10948 122.39619 -34.23058 6.38595 -58.8082 -15.81375 -2.10096 37.33763 13.92286 -40.62261 -26.29291 13.32144 17.76255 7.9275 52.02832 0.76929 15.47061 -34.44142 -9.55816 5.58983 3.79845
0.05222 -0.02112 -0.13804 -193.65985 -31.06987 -8.01995 39.85924 1.48484 5.39165 -39.57619 4.28187 -0.83063 -29.46491 -10.42527 -11.28987 29.37767 81.71746 -1.73721 -10.04284 -16.04541 122.22788 -34.52539 6.26004 -58.44925 -15.57325 -2.28075 37.34 13.92285 -40.62258 -26.22153 13.25116 17.98027 7.97643 52.00667 0.83869 15.76717 -34.32262 -9.53756 5.5829 3.79052
0.05271 -0.02106 -0.1374 -193.73844 -31.05024 -8.04689 39.7835 1.62339 5.46425 -39.62516 4.52995 -0.83063 -29.17572 -10.81922 -10.33905 29.39157 81.68533 -1.52938 -9.70323 -16.08476 122.04954 -34.76495 6.16898 -58.05925 -15.39355 -2.41579 37.32792 13.92285 -40.62257 -26.12113 13.24306 17.94548 8.07977 51.97356 0.87197 16.0027 -34.208 -9.514 5.5746 3.78288
0.05304 -0.02098 -0.13647 -193.67094 -31.01002 -8.06968 39.69978 1.82537 5.42262 -39.60454 4.79609 -0.83063 -28.78148 -11.34717 -9.49503 29.58608 81.61453 -1.56033 -9.73962 -16.35105 121.84686 -34.94937 6.18802 -57.70185 -15.4328 -2.43971 37.28543 13.92285 -40.62259 -25.95873 13.38641 17.13477 8.37334 51.91035 0.80035 16.03078 -34.09953 -9.48746 5.56429 3.77767
0.0533 -0.02089 -0.13543 -193.55158 -30.96361 -8.09008 39.61468 2.05128 5.34285 -39.55335 5.07079 -0.83063 -28.33767 -11.93354 -8.67409 29.84627 81.53184 -1.67075 -9.89994 -16.70986 121.63673 -35.08118 6.24432 -57.32951 -15.54065 -2.41747 37.23028 13.92286 -40.62262 -25.7691 13.58869 16.08587 8.71708 51.83706 0.69248 15.99467 -33.99479 -9.45862 5.55289 3.77294
0.05359 -0.0208 -0.13443 -193.45935 -30.92331 -8.11252 39.53552 2.26585 5.28124 -39.5144 5.34409 -0.83063 -27.91007 -12.49052 -7.85254 30.07846 81.45612 -1.74756 -10.00635 -17.01951 121.43495 -35.21285 6.2844 -56.97134 -15.6171 -2.41112 37.1832 13.92286 -40.62264 -25.59151 13.76168 15.20391 9.01607 51.77144 0.60282 15.99253 -33.88829 -9.43083 5.54211 3.76791
0.05389 -0.02071 -0.13345 -193.35061 -30.86899 -8.13014 39.43266 2.48325 5.21752 -39.48032 5.60715 -0.83063 -27.50443 -13.06768 -6.97596 30.30071 81.37412 -1.80803 -10.09341 -17.36894 121.21055 -35.43287 6.31967 -56.56393 -15.68801 -2.42433 37.12545 13.92287 -40.62267 -25.41313 13.9487 14.07776 9.40431 51.69235 0.50631 15.97514 -33.78251 -9.40221 5.53049 3.76295
0.05414 -0.02062 -0.13242 -193.26487 -30.84193 -8.15738 39.37897 2.7 5.149 -39.42944 5.89342 -0.83063 -27.04338 -13.61323 -6.2232 30.56037 81.30247 -1.92314 -10.25298 -17.65395 121.03218 -35.46503 6.37416 -56.26156 -15.78855 -2.38756 37.08646 13.92287 -40.6227 -25.23049 14.11922 13.39821 9.62183 51.63871 0.41519 15.97207 -33.67625 -9.37515 5.52051 3.7581
0.05427 -0.02054 -0.13126 -193.25063 -30.89805 -8.21368 39.46591 2.91029 5.07146 -39.34203 6.24227 -0.83063 -26.438 -14.06046 -5.82465 30.9039 81.2595 -2.17537 -10.59173 -17.73572 120.98255 -34.94663 6.4767 -56.26428 -15.96252 -2.21175 37.11246 13.92287 -40.6227 -25.04671 14.22882 14.06106 9.33131 51.66254 0.3491 16.02762 -33.56399 -9.35213 5.51477 3.75311
0.05435 -0.02046 -0.13005 -193.26225 -30.98075 -8.27957 39.60186 3.11863 4.99093 -39.23854 6.61391 -0.83063 -25.78007 -14.4718 -5.5489 31.2837 81.22776 -2.47948 -10.99877 -17.7485 120.97991 -34.25043 6.5968 -56.37387 -16.16327 -1.98961 37.15633 13.92287 -40.62269 -24.85951 14.31929 15.17245 8.87185 51.71159 0.2895 16.09857 -33.45177 -9.33102 5.51084 3.74832
0.05445 -0.02038 -0.12887 -193.26537 -31.04713 -8.33986 39.71253 3.3272 4.91513 -39.14129 6.97485 -0.83063 -25.14876 -14.89676 -5.20706 31.64935 81.1927 -2.75725 -11.37007 -17.79326 120.95589 -33.66647 6.70653 -56.42971 -16.34748 -1.7969 37.18545 13.92287 -40.62268 -24.67127 14.41885 16.04501 8.50604 51.74606 0.22589 16.15947 -33.34177 -9.30968 5.5065 3.74371
0.05457 -0.02029 -0.12768 -193.25331 -31.13103 -8.40504 39.83546 3.54001 4.8246 -39.04784 7.33807 -0.83064 -24.50308 -15.33665 -4.90835 32.00736 81.14986 -3.05012 -11.76588 -17.83896 120.93103 -32.94856 6.82776 -56.50631 -16.553 -1.56732 37.24139 13.92287 -40.62268 -24.49177 14.51956 17.05612 8.07123 51.79318 0.16504 16.23076 -33.22219 -9.28554 5.50044 3.73801
0.05463 -0.02021 -0.12648 -193.27922 -31.18503 -8.46265 39.94496 3.74241 4.76353 -38.94258 7.7012 -0.83064 -23.87674 -15.73437 -4.54978 32.3891 81.12583 -3.32189 -12.12462 -17.86487 120.92002 -32.46717 6.92854 -56.56562 -16.71887 -1.40398 37.24674 13.92287 -40.62267 -24.29513 14.61168 17.88934 7.73871 51.82025 0.10105 16.2853 -33.12288 -9.26774 5.49832 3.73457
0.05459 -0.02017 -0.12526 -193.40778 -31.14839 -8.49437 40.00159 3.9231 4.79327 -38.81293 8.06358 -0.83064 -23.30733 -16.03861 -3.988 32.82704 81.15279 -3.53075 -12.3699 -17.854 120.92861 -32.68943 6.97015 -56.54962 -16.77529 -1.43605 37.10076 13.92286 -40.62264 -24.03931 14.69202 18.11334 7.73538 51.78425 0.02174 16.28603 -33.07638 -9.26683 5.50746 3.73769
0.05449 -0.02014 -0.12404 -193.57308 -31.08102 -8.51857 40.04362 4.09198 4.85139 -38.67132 8.42387 -0.83064 -22.76172 -16.29846 -3.36356 33.28736 81.198 -3.71473 -12.57388 -17.82499 120.95072 -33.15337 6.99015 -56.51315 -16.78952 -1.53602 36.90457 13.92286 -40.62261 -23.76882 14.76283 18.14545 7.83955 51.72749 -0.05989 16.27021 -33.05089 -9.27228 5.52037 3.74301
0.05442 -0.0201 -0.12283 -193.71919 -31.02888 -8.54802 40.09498 4.26194 4.8909 -38.53253 8.78206 -0.83064 -22.21095 -16.56927 -2.7724 33.73744 81.23369 -3.90441 -12.79252 -17.80306 120.97162 -33.5042 7.01874 -56.48684 -16.81815 -1.60485 36.73633 13.92285 -40.62258 -23.51361 14.83282 18.27219 7.89076 51.68133 -0.13691 16.26494 -33.01779 -9.2749 5.53099 3.7471
0.05436 -0.02006 -0.12155 -193.87694 -30.97259 -8.5703 40.13712 4.4502 4.95412 -38.40416 9.15486 -0.83064 -21.63233 -16.87864 -2.16362 34.18919 81.27491 -4.11949 -13.031 -17.7834 120.9741 -33.86863 7.05294 -56.45973 -16.86709 -1.67478 36.54748 13.92285 -40.62255 -23.22213 14.92349 18.38362 7.95352 51.63129 -0.22852 16.24801 -32.97634 -9.27729 5.54404 3.75216
0.05425 -0.02002 -0.12042 -194.01852 -30.91698 -8.6053 40.19379 4.59724 4.97512 -38.2515 9.49525 -0.83064 -21.12071 -17.09652 -1.57712 34.64223 81.30887 -4.27523 -13.21742 -17.75596 121.01659 -34.2569 7.07035 -56.42916 -16.86438 -1.75721 36.38886 13.92285 -40.62253 -23.00249 14.96963 18.47488 8.01985 51.58383 -0.29065 16.25043 -32.9575 -9.28171 5.55298 3.75574
0.054 -0.02002 -0.11968 -194.10915 -30.87342 -8.67982 40.29883 4.63602 4.86942 -38.0347 9.75665 -0.83064 -20.76596 -17.08202 -1.04952 35.09279 81.3175 -4.27142 -13.26952 -17.7086 121.17401 -34.71883 7.0441 -56.38374 -16.7201 -1.87483 36.33071 13.92285 -40.62255 -22.98726 14.89039 18.56085 8.07157 51.55068 -0.26825 16.31763 -32.99386 -9.28969 5.54901 3.75431
0.0537 -0.02003 -0.11909 -194.18158 -30.83104 -8.76687 40.41791 4.63327 4.72091 -37.79403 9.98338 -0.83064 -20.48237 -16.97549 -0.54937 35.5432 81.31828 -4.20869 -13.27025 -17.655 121.36945 -35.18574 7.00203 -56.3368 -16.52683 -1.99993 36.30384 13.92286 -40.6226 -23.0444 14.76772 18.62992 8.12381 51.52037 -0.21657 16.40357 -33.05263 -9.29955 5.54086 3.75135
0.05342 -0.02003 -0.11844 -194.26047 -30.78616 -8.84642 40.52717 4.64774 4.59407 -37.56428 10.21952 -0.83064 -20.18096 -16.90501 -0.04767 35.99462 81.32318 -4.17403 -13.29479 -17.60636 121.54231 -35.60621 6.96885 -56.29691 -16.36199 -2.11023 36.25941 13.92286 -40.62263 -23.06678 14.66806 18.70268 8.17524 51.4872 -0.18002 16.47597 -33.10254 -9.30889 5.53504 3.74931
0.05314 -0.02003 -0.11776 -194.34839 -30.74826 -8.93331 40.65026 4.66861 4.45873 -37.3335 10.48305 -0.83064 -19.81856 -16.85695 0.50275 36.44534 81.32648 -4.13366 -13.31668 -17.54772 121.73849 -36.21771 6.92796 -56.23001 -16.16992 -2.27007 36.22703 13.92287 -40.62267 -23.0965 14.55397 18.78732 8.2321 51.45973 -0.13594 16.56857 -33.14768 -9.31715 5.52759 3.74641
0.05286 -0.02004 -0.11719 -194.41259 -30.69685 -9.008 40.74832 4.66665 4.33074 -37.09973 10.6805 -0.83064 -19.6004 -16.74137 0.94377 36.89409 81.33091 -4.09081 -13.33154 -17.50911 121.8944 -36.43413 6.89939 -56.21866 -16.02318 -2.32881 36.17802 13.92287 -40.6227 -23.1284 14.4601 18.84382 8.27718 51.42161 -0.10045 16.6243 -33.2077 -9.32792 5.52245 3.74489
0.05261 -0.02006 -0.11685 -194.41634 -30.60488 -9.04583 40.77168 4.60998 4.23168 -36.8604 10.71113 -0.83064 -19.75776 -16.45829 1.09377 37.36289 81.34123 -4.06162 -13.34727 -17.5235 121.93423 -35.51747 6.91097 -56.36614 -16.01656 -2.09636 36.07229 13.92287 -40.62271 -23.14794 14.42954 18.84386 8.2822 51.35092 -0.09685 16.56905 -33.30407 -9.34579 5.52499 3.74768
0.05238 -0.02009 -0.11662 -194.39651 -30.49998 -9.071 40.76982 4.53218 4.14169 -36.61963 10.67525 -0.83064 -20.05857 -16.11142 1.13321 37.82415 81.35272 -4.03106 -13.35649 -17.55899 121.93138 -34.21017 6.93521 -56.56862 -16.05701 -1.7637 35.94957 13.92287 -40.62271 -23.16736 14.4214 18.81462 8.27586 51.26992 -0.10272 16.47703 -33.4143 -9.36595 5.52993 3.75187
